<svg width="923" height="875" viewBox="0 0 923 875" fill="none" xmlns="http://www.w3.org/2000/svg">
<path fill-rule="evenodd" clip-rule="evenodd" d="M359.508 114.769C437.51 84.1721 532.163 64.8831 604.588 106.969C675.015 147.894 667.831 251.323 712.118 319.669C752.416 381.859 838.282 413.523 850.58 486.599C863.387 562.7 826.272 641.183 776.098 699.852C728.202 755.858 655.82 781.124 584.117 798.181C517.579 814.009 450.641 808.589 384.027 793.119C311.557 776.289 234.618 760.62 184.751 705.436C132.289 647.38 109.692 567.454 109.397 489.21C109.103 410.938 139.635 337.4 183.123 272.295C228.001 205.107 284.276 144.28 359.508 114.769Z" stroke="white" stroke-opacity="0.4" stroke-width="6"/>
</svg>
