<svg width="24" height="24" fill="current" xmlns="http://www.w3.org/2000/svg"><path fill-rule="evenodd" clip-rule="evenodd" d="M14.097 8.5c0 .55-.45 1-1 1s-1-.45-1-1v-2h-2c-.55 0-1-.45-1-1s.45-1 1-1h2v-2c0-.55.45-1 1-1s1 .45 1 1v2h2c.55 0 1 .45 1 1s-.45 1-1 1h-2v2Zm-7.99 12c0-1.1.89-2 1.99-2s2 .9 2 2-.9 2-2 2-1.99-.9-1.99-2Zm11.99-2c-1.1 0-1.99.9-1.99 2s.89 2 1.99 2 2-.9 2-2-.9-2-2-2Zm-1.45-5h-7.45l-1.1 2h11c.55 0 1 .45 1 1s-.45 1-1 1h-11c-1.52 0-2.48-1.63-1.75-2.97l1.35-2.44-3.6-7.59h-1c-.55 0-1-.45-1-1s.45-1 1-1h1.64c.38 0 .74.22.9.57l3.99 8.43h7.02l3.39-6.13c.26-.48.87-.65 1.35-.39.48.27.66.88.39 1.36l-3.38 6.13c-.34.62-1 1.03-1.75 1.03Z" fill="current" fill-opacity="1"/></svg>