<svg xmlns="http://www.w3.org/2000/svg" viewBox="0 0 55.473 55.473" xml:space="preserve"><path d="M10.473 38.736c-1.654 0-3 1.346-3 3s1.346 3 3 3 3-1.346 3-3-1.346-3-3-3zm0 4a1 1 0 1 1 0-2 1 1 0 0 1 0 2zM14.473 27.236c-2.206 0-4 1.794-4 4s1.794 4 4 4 4-1.794 4-4-1.794-4-4-4zm0 6c-1.103 0-2-.897-2-2s.897-2 2-2 2 .897 2 2-.897 2-2 2zM22.473 35.736c-1.654 0-3 1.346-3 3s1.346 3 3 3 3-1.346 3-3-1.346-3-3-3zm0 4a1 1 0 1 1 0-2 1 1 0 0 1 0 2zM10.473 23.236c0-1.654-1.346-3-3-3s-3 1.346-3 3 1.346 3 3 3 3-1.346 3-3zm-4 0a1 1 0 1 1 2 0 1 1 0 0 1-2 0z"/><path d="M54.473 43.236v-35a1 1 0 0 0-1-1c-3.309 0-6 2.691-6 6v3h-4c0-3.859-3.141-7-7-7h-4V7.399c0-2.552-1.825-4.748-4.245-5.107a4.96 4.96 0 0 0-4.258 1.393 4.96 4.96 0 0 0-3.497-1.449 4.966 4.966 0 0 0-3.5 1.45 4.966 4.966 0 0 0-3.5-1.45 4.96 4.96 0 0 0-3.524 1.476c-.975-.906-2.356-1.476-3.726-1.476-1.687 0-3.211.832-4.529 2.475a.996.996 0 0 0-.221.626v38.622l-1.04 1.733a2.967 2.967 0 0 0-.038 3.022 2.966 2.966 0 0 0 2.61 1.522h27.936a2.966 2.966 0 0 0 2.61-1.521 2.967 2.967 0 0 0-.038-3.022l-1.04-1.734v-.723h4a6.955 6.955 0 0 0 3-.685v.685a1 1 0 0 0-1 1v9h2v-4h13v4h2v-9a1 1 0 0 0-1-1zm-7-12a1 1 0 0 1-1 1h-8a1 1 0 0 1 0-2h8a1 1 0 0 1 1 1zm-15-16h4a1 1 0 0 1 1 1v.184a2.996 2.996 0 0 0-2 2.816c0 .771.301 1.468.78 2-.48.532-.78 1.229-.78 2s.301 1.468.78 2c-.48.532-.78 1.229-.78 2s.301 1.468.78 2a2.976 2.976 0 0 0-.78 2c0 1.302.839 2.402 2 2.816v2.184a1 1 0 0 1-1 1h-4v-22zm15 8a1 1 0 0 1-1 1h-8a1 1 0 0 1 0-2h8a1 1 0 0 1 1 1zm0 4a1 1 0 0 1-1 1h-8a1 1 0 0 1 0-2h8a1 1 0 0 1 1 1zm-2-9h1a1 1 0 0 1 0 2h-8a1 1 0 0 1 0-2h7zm-9-7c2.757 0 5 2.243 5 5h-2c0-1.654-1.346-3-3-3h-4v-2h4zm-33-5.535c.866-.986 1.768-1.465 2.75-1.465 1.166 0 2.374.664 2.872 1.579.35.643 1.406.643 1.756 0 .53-.975 1.535-1.579 2.622-1.579s2.092.604 2.622 1.579c.35.643 1.406.643 1.756 0 .53-.975 1.535-1.579 2.622-1.579s2.092.604 2.622 1.579c.35.643 1.405.644 1.757-.001a2.987 2.987 0 0 1 3.082-1.544c1.447.215 2.539 1.561 2.539 3.129v5.837h-5a1 1 0 0 0-1 1v13c0 .827-.673 1.5-1.5 1.5s-1.5-.673-1.5-1.5v-13a1 1 0 0 0-1-1h-4a1 1 0 0 0-1 1v3.5c0 .827-.673 1.5-1.5 1.5s-1.5-.673-1.5-1.5v-3.5a1 1 0 0 0-1-1h-8V5.701zm28.338 42.028a.981.981 0 0 1-.87.507H3.005a.981.981 0 0 1-.87-.507.983.983 0 0 1 .013-1.008l1.183-1.971a.997.997 0 0 0 .142-.514v-29h7v2.5c0 1.93 1.57 3.5 3.5 3.5s3.5-1.57 3.5-3.5v-2.5h2v12c0 1.93 1.57 3.5 3.5 3.5s3.5-1.57 3.5-3.5v-12h4v29c0 .182.049.359.143.515l1.183 1.971c.27.451.098.854.012 1.007zm.662-6.493v-2h4c1.654 0 3-1.346 3-3v-2h2v2c0 2.757-2.243 5-5 5h-4zm9-.111a6.975 6.975 0 0 0 2-4.889v-2h3c1.654 0 3-1.346 3-3a2.98 2.98 0 0 0-.78-2c.48-.532.78-1.229.78-2s-.301-1.468-.78-2c.48-.532.78-1.229.78-2s-.301-1.468-.78-2c.48-.532.78-1.229.78-2 0-.462-.114-.895-.301-1.287a.994.994 0 0 0 .301-.713v-4a4.005 4.005 0 0 1 3-3.873v33.873h-11v-2.111zm-1 6.111v-2h13v2h-13z"/><path d="M26.473 44.236h2v2h-2zM22.473 44.236h2v2h-2zM18.473 44.236h2v2h-2z"/></svg>