<svg width="24" height="24" fill="current" xmlns="http://www.w3.org/2000/svg"><path fill-rule="evenodd" clip-rule="evenodd" d="M1.275 2.68a.996.996 0 1 1 1.41-1.41l20.04 20.05a.996.996 0 1 1-1.41 1.41l-2.13-2.13c-.36.51-.95.84-1.62.84a1.997 1.997 0 0 1-1.16-3.62l-1.38-1.38h-7.33c-1.06 0-2.02-.76-2.12-1.82-.04-.42.05-.82.24-1.15l1.35-2.45-2.21-4.66-3.68-3.68Zm7.39 9.76-1.1 2h5.46l-2-2h-2.36Zm7.95-.06c.54-.14.99-.49 1.25-.97l3.58-6.49c.37-.66-.12-1.48-.88-1.48H7.685l8.93 8.94Zm-11.04 7.06c0-1.1.89-2 1.99-2s2 .9 2 2-.9 2-2 2-1.99-.9-1.99-2Z" fill="current" fill-opacity="1"/></svg>